<mxfile host="app.diagrams.net" agent="Mozilla/5.0 (Windows NT 10.0; Win64; x64) AppleWebKit/537.36 (KHTML, like Gecko) Chrome/133.0.0.0 Safari/537.36" version="26.1.0">
  <diagram name="PÃ¡gina-1" id="996vOrbIRo13FA5-qhIG">
    <mxGraphModel dx="1313" dy="696" grid="1" gridSize="10" guides="1" tooltips="1" connect="1" arrows="1" fold="1" page="1" pageScale="1" pageWidth="827" pageHeight="1169" math="0" shadow="0">
      <root>
        <mxCell id="0" />
        <mxCell id="1" parent="0" />
        <mxCell id="WhNo0k6KDu9jYtKr7EV5-11" value="" style="edgeStyle=orthogonalEdgeStyle;rounded=0;orthogonalLoop=1;jettySize=auto;html=1;" edge="1" parent="1" source="WhNo0k6KDu9jYtKr7EV5-1" target="WhNo0k6KDu9jYtKr7EV5-3">
          <mxGeometry relative="1" as="geometry" />
        </mxCell>
        <mxCell id="WhNo0k6KDu9jYtKr7EV5-1" value="Inicio" style="strokeWidth=2;html=1;shape=mxgraph.flowchart.start_1;whiteSpace=wrap;fillColor=#d5e8d4;strokeColor=#82b366;" vertex="1" parent="1">
          <mxGeometry x="364" y="30" width="100" height="60" as="geometry" />
        </mxCell>
        <mxCell id="WhNo0k6KDu9jYtKr7EV5-2" value="Fim" style="strokeWidth=2;html=1;shape=mxgraph.flowchart.start_1;whiteSpace=wrap;fillColor=#d5e8d4;strokeColor=#82b366;" vertex="1" parent="1">
          <mxGeometry x="364" y="790" width="100" height="60" as="geometry" />
        </mxCell>
        <mxCell id="WhNo0k6KDu9jYtKr7EV5-3" value="WS-IDADE = 0&lt;div&gt;WS-DIA = 0&lt;/div&gt;&lt;div&gt;WS-HORAS = 0&lt;/div&gt;&lt;div&gt;WS-MINUTOS = 0&lt;/div&gt;&lt;div&gt;WS-SEGUNDOS = 0&amp;nbsp;&lt;/div&gt;&lt;div&gt;WS-ANO = 365&lt;/div&gt;" style="rounded=1;whiteSpace=wrap;html=1;absoluteArcSize=1;arcSize=14;strokeWidth=2;fillColor=#f5f5f5;fontColor=#333333;strokeColor=#666666;" vertex="1" parent="1">
          <mxGeometry x="349" y="120" width="129" height="100" as="geometry" />
        </mxCell>
        <mxCell id="WhNo0k6KDu9jYtKr7EV5-24" style="edgeStyle=orthogonalEdgeStyle;rounded=0;orthogonalLoop=1;jettySize=auto;html=1;entryX=0.5;entryY=0;entryDx=0;entryDy=0;" edge="1" parent="1" source="WhNo0k6KDu9jYtKr7EV5-4" target="WhNo0k6KDu9jYtKr7EV5-5">
          <mxGeometry relative="1" as="geometry" />
        </mxCell>
        <mxCell id="WhNo0k6KDu9jYtKr7EV5-4" value="&lt;div&gt;&lt;br&gt;&lt;/div&gt;&lt;div&gt;WS-IDADE&lt;/div&gt;" style="html=1;strokeWidth=2;shape=manualInput;whiteSpace=wrap;rounded=1;size=26;arcSize=11;fillColor=#dae8fc;strokeColor=#6c8ebf;" vertex="1" parent="1">
          <mxGeometry x="364" y="240" width="100" height="60" as="geometry" />
        </mxCell>
        <mxCell id="WhNo0k6KDu9jYtKr7EV5-14" value="" style="edgeStyle=orthogonalEdgeStyle;rounded=0;orthogonalLoop=1;jettySize=auto;html=1;" edge="1" parent="1" source="WhNo0k6KDu9jYtKr7EV5-5" target="WhNo0k6KDu9jYtKr7EV5-7">
          <mxGeometry relative="1" as="geometry" />
        </mxCell>
        <mxCell id="WhNo0k6KDu9jYtKr7EV5-5" value="WS-DIAS = WS-IDADE * WS-ANO" style="rounded=1;whiteSpace=wrap;html=1;absoluteArcSize=1;arcSize=14;strokeWidth=2;fillColor=#f5f5f5;fontColor=#333333;strokeColor=#666666;" vertex="1" parent="1">
          <mxGeometry x="314.5" y="330" width="199" height="60" as="geometry" />
        </mxCell>
        <mxCell id="WhNo0k6KDu9jYtKr7EV5-21" style="edgeStyle=orthogonalEdgeStyle;rounded=0;orthogonalLoop=1;jettySize=auto;html=1;entryX=0.5;entryY=0;entryDx=0;entryDy=0;" edge="1" parent="1" source="WhNo0k6KDu9jYtKr7EV5-6" target="WhNo0k6KDu9jYtKr7EV5-8">
          <mxGeometry relative="1" as="geometry" />
        </mxCell>
        <mxCell id="WhNo0k6KDu9jYtKr7EV5-6" value="WS-MINUTOS = WS-HORAS * 60" style="rounded=1;whiteSpace=wrap;html=1;absoluteArcSize=1;arcSize=14;strokeWidth=2;fillColor=#f5f5f5;fontColor=#333333;strokeColor=#666666;" vertex="1" parent="1">
          <mxGeometry x="314.5" y="495" width="199" height="60" as="geometry" />
        </mxCell>
        <mxCell id="WhNo0k6KDu9jYtKr7EV5-22" style="edgeStyle=orthogonalEdgeStyle;rounded=0;orthogonalLoop=1;jettySize=auto;html=1;entryX=0.5;entryY=0;entryDx=0;entryDy=0;" edge="1" parent="1" source="WhNo0k6KDu9jYtKr7EV5-7" target="WhNo0k6KDu9jYtKr7EV5-6">
          <mxGeometry relative="1" as="geometry" />
        </mxCell>
        <mxCell id="WhNo0k6KDu9jYtKr7EV5-7" value="WS-HORAS = WS-DIAS * 24" style="rounded=1;whiteSpace=wrap;html=1;absoluteArcSize=1;arcSize=14;strokeWidth=2;fillColor=#f5f5f5;fontColor=#333333;strokeColor=#666666;" vertex="1" parent="1">
          <mxGeometry x="314" y="410" width="199" height="60" as="geometry" />
        </mxCell>
        <mxCell id="WhNo0k6KDu9jYtKr7EV5-18" value="" style="edgeStyle=orthogonalEdgeStyle;rounded=0;orthogonalLoop=1;jettySize=auto;html=1;" edge="1" parent="1" source="WhNo0k6KDu9jYtKr7EV5-8" target="WhNo0k6KDu9jYtKr7EV5-10">
          <mxGeometry relative="1" as="geometry" />
        </mxCell>
        <mxCell id="WhNo0k6KDu9jYtKr7EV5-8" value="WS-SEGUNDOS = WS-MINUTOS * 60" style="rounded=1;whiteSpace=wrap;html=1;absoluteArcSize=1;arcSize=14;strokeWidth=2;fillColor=#f5f5f5;fontColor=#333333;strokeColor=#666666;" vertex="1" parent="1">
          <mxGeometry x="301.25" y="584.5" width="225.5" height="60" as="geometry" />
        </mxCell>
        <mxCell id="WhNo0k6KDu9jYtKr7EV5-10" value="&amp;nbsp; &amp;nbsp;WS-DIAS&lt;div&gt;&amp;nbsp; &amp;nbsp; WS-HORAS&lt;/div&gt;&lt;div&gt;&amp;nbsp; &amp;nbsp; WS-MINUTOS&lt;/div&gt;&lt;div&gt;&amp;nbsp; &amp;nbsp; WS-SEGUNDOS&lt;/div&gt;" style="strokeWidth=2;html=1;shape=mxgraph.flowchart.display;whiteSpace=wrap;fillColor=#e1d5e7;strokeColor=#9673a6;" vertex="1" parent="1">
          <mxGeometry x="345" y="670" width="138" height="90" as="geometry" />
        </mxCell>
        <mxCell id="WhNo0k6KDu9jYtKr7EV5-23" style="edgeStyle=orthogonalEdgeStyle;rounded=0;orthogonalLoop=1;jettySize=auto;html=1;entryX=0.495;entryY=0.167;entryDx=0;entryDy=0;entryPerimeter=0;" edge="1" parent="1" source="WhNo0k6KDu9jYtKr7EV5-3" target="WhNo0k6KDu9jYtKr7EV5-4">
          <mxGeometry relative="1" as="geometry" />
        </mxCell>
        <mxCell id="WhNo0k6KDu9jYtKr7EV5-25" style="edgeStyle=orthogonalEdgeStyle;rounded=0;orthogonalLoop=1;jettySize=auto;html=1;exitX=0.5;exitY=1;exitDx=0;exitDy=0;exitPerimeter=0;entryX=0.5;entryY=0;entryDx=0;entryDy=0;entryPerimeter=0;" edge="1" parent="1" source="WhNo0k6KDu9jYtKr7EV5-10" target="WhNo0k6KDu9jYtKr7EV5-2">
          <mxGeometry relative="1" as="geometry" />
        </mxCell>
      </root>
    </mxGraphModel>
  </diagram>
</mxfile>
